<svg width="48" height="24" viewBox="0 0 48 24" fill="none" xmlns="http://www.w3.org/2000/svg">
<path d="M9.89349 7.23699C10.3553 7.08084 10.848 6.99756 11.3591 6.99756C13.5964 6.99756 15.4643 8.60904 15.8912 10.7514L19.0625 10.0956C18.3359 6.45624 15.1625 3.71631 11.3591 3.71631C10.4867 3.71631 9.65129 3.85997 8.86719 4.12647L9.89349 7.23699Z" fill="#FFCB05"/>
<path d="M6.15149 17.6595L8.29647 15.2006C7.33995 14.3407 6.73648 13.0853 6.73648 11.6862C6.73648 10.2891 7.33995 9.0337 8.29647 8.17591L6.15149 5.71497C4.52582 7.17654 3.49951 9.3106 3.49951 11.6862C3.49951 14.0638 4.52582 16.1979 6.15149 17.6595" fill="#00A4E0"/>
<path d="M15.8912 12.6273C15.4622 14.7676 13.5964 16.377 11.3611 16.377C10.848 16.377 10.3533 16.2937 9.89349 16.1355L8.86719 19.2502C9.65129 19.5146 10.4888 19.6583 11.3611 19.6583C15.1605 19.6583 18.3318 16.9225 19.0625 13.2873L15.8912 12.6273Z" fill="#EF4123"/>
<path d="M21.8355 15.3026C21.7308 15.1319 21.5912 14.8591 21.505 14.6572C21.0021 13.4746 20.9796 12.2504 21.4024 11.0761C21.8683 9.78736 22.7592 8.80257 23.9107 8.29872C25.3578 7.66787 26.9568 7.79071 28.3443 8.6256C29.2249 9.13777 29.8489 9.92894 30.3231 11.0491C30.3826 11.1927 30.4359 11.3447 30.4893 11.4759L21.8355 15.3026ZM24.7256 10.1996C23.6972 10.6472 23.1676 11.6258 23.2785 12.7709L27.63 10.87C26.8808 9.97891 25.9079 9.68326 24.7256 10.1996V10.1996ZM28.1719 14.3345C28.1699 14.3345 28.1699 14.3366 28.1699 14.3366L28.0795 14.2741C27.8189 14.7009 27.4145 15.0486 26.9034 15.2735C25.9305 15.7024 25.0294 15.592 24.3807 15.0153L24.3212 15.1069C24.3212 15.1069 24.3212 15.1048 24.3192 15.1048L23.2149 16.7808C23.4899 16.9745 23.7834 17.1369 24.0913 17.268C25.3106 17.7823 26.5586 17.7573 27.7881 17.216C28.6769 16.8246 29.3747 16.2291 29.851 15.4733L28.1719 14.3345ZM33.5128 5.83362V15.1485L34.9414 15.7357L34.1306 17.6553L32.5542 16.989C32.2012 16.8329 31.959 16.5955 31.7784 16.327C31.6039 16.0542 31.4746 15.6774 31.4746 15.1735V5.83362H33.5128ZM37.2116 12.7771C37.2116 11.9839 37.5585 11.2718 38.1045 10.7888L36.6389 9.13153C35.6455 10.0226 35.0194 11.3239 35.0194 12.773C35.0174 14.2241 35.6434 15.5275 36.6348 16.4186L38.0983 14.7613C37.5544 14.2762 37.2116 13.5683 37.2116 12.7771V12.7771ZM39.8143 15.4192C39.527 15.4192 39.2478 15.3692 38.9892 15.2818L38.2892 17.3909C38.7675 17.5533 39.2786 17.6428 39.8123 17.6428C42.1317 17.6449 44.0673 15.9751 44.5169 13.7578L42.3657 13.3122C42.1215 14.5177 41.0726 15.4213 39.8143 15.4192V15.4192ZM39.8205 7.91147C39.2889 7.91147 38.7778 7.99891 38.2995 8.15923L38.9933 10.2704C39.254 10.1829 39.5311 10.1351 39.8184 10.1351C41.0787 10.1371 42.1297 11.0449 42.3678 12.2525L44.5189 11.8111C44.0776 9.58957 42.142 7.91355 39.8205 7.91147V7.91147Z" fill="white"/>
</svg>
